<?xml version="1.0" encoding="utf-8"?>
<!-- Generator: Adobe Illustrator 22.1.0, SVG Export Plug-In . SVG Version: 6.00 Build 0)  -->
<svg version="1.1" id="圖層_1" xmlns="http://www.w3.org/2000/svg" xmlns:xlink="http://www.w3.org/1999/xlink" x="0px" y="0px"
	 width="32px" height="32px" viewBox="0 0 32 32" style="enable-background:new 0 0 32 32;" xml:space="preserve">
<path d="M16.1,17.9c-0.3,0-0.5,0-0.8-0.1c-0.3-0.1-0.5-0.2-0.7-0.4c-0.2-0.2-0.3-0.4-0.4-0.7c-0.1-0.3-0.1-0.5-0.1-0.8
	c0-0.4,0.2-0.9,0.5-1.2c0.3-0.3,0.8-0.5,1.2-0.6c0.3,0,0.5,0,0.8,0.1c0.3,0.1,0.5,0.2,0.7,0.4c0.2,0.2,0.3,0.4,0.4,0.7
	c0.1,0.2,0.1,0.5,0.1,0.8c0,0.4-0.2,0.9-0.5,1.2C17,17.6,16.6,17.8,16.1,17.9z M16.3,19.5c-0.5,0-1-0.1-1.5-0.2
	c-0.5-0.2-0.9-0.5-1.2-0.8c-0.3-0.4-0.6-0.8-0.8-1.2c-0.2-0.5-0.2-1-0.2-1.4c0-0.8,0.4-1.6,1-2.2c0.6-0.6,1.4-1,2.3-1.1
	c0.5,0,1,0.1,1.5,0.2s0.9,0.5,1.2,0.8c0.3,0.4,0.6,0.8,0.8,1.2s0.2,1,0.2,1.4c0,0.8-0.4,1.6-1,2.2C17.9,19.1,17.1,19.4,16.3,19.5z
	 M16,11c-1.5,0.1-3,0.4-4.3,1.1c-1.3,0.7-2.5,1.6-3.4,2.8C8.1,15.2,8,15.6,8,16c0,0.4,0.1,0.8,0.4,1.1c0.9,1.2,2,2.1,3.3,2.8
	c1.3,0.7,2.8,1.1,4.3,1.1c1.5-0.1,3-0.4,4.3-1.1c1.3-0.7,2.5-1.6,3.3-2.8c0.3-0.3,0.4-0.7,0.4-1.1c0-0.4-0.1-0.8-0.4-1.1
	c-0.9-1.2-2-2.1-3.3-2.8C19,11.4,17.5,11.1,16,11z"/>
</svg>
