<?xml version="1.0" encoding="utf-8"?>
<!-- Generator: Adobe Illustrator 26.2.1, SVG Export Plug-In . SVG Version: 6.00 Build 0)  -->
<svg version="1.1" id="圖層_1" xmlns="http://www.w3.org/2000/svg" xmlns:xlink="http://www.w3.org/1999/xlink" x="0px" y="0px"
	 viewBox="0 0 32 32" style="enable-background:new 0 0 32 32;" xml:space="preserve">
<path d="M15.8,12.4c0.9,0,1.8,0.3,2.5,0.9c0.7,0.6,1.1,1.5,1.2,2.4c0,0.3,0.1,0.6,0.3,0.8l2.3,2.3c0.6-0.5,1.1-1,1.6-1.6
	c0.3-0.3,0.4-0.7,0.4-1.1c0-0.4-0.1-0.8-0.4-1.1c-0.9-1.2-2-2.2-3.3-2.9s-2.8-1.1-4.3-1.2c-0.6,0-1.1,0.1-1.7,0.2L15.8,12.4
	L15.8,12.4z"/>
<path d="M23.9,22.5L9.9,8.4L9.8,8.3L9.7,8.2c0-0.1-0.1-0.1-0.2-0.2c0,0-0.1,0-0.2,0C9.2,8,9.1,8,9.1,8C9,8.1,8.9,8.1,8.9,8.2
	L8.3,8.7c0,0.1-0.1,0.1-0.1,0.2c0,0.1,0,0.2,0,0.2c0,0.1,0,0.2,0,0.2c0,0.1,0.1,0.1,0.1,0.2l2.8,2.8c-1.1,0.7-2,1.6-2.8,2.6
	C8.1,15.3,8,15.7,8,16.1s0.1,0.8,0.4,1.1c0.9,1.2,2,2.2,3.3,2.9c1.3,0.7,2.8,1.1,4.3,1.2c1.1,0,2.3-0.2,3.3-0.7l3.1,3.2
	c0.1,0.1,0.3,0.2,0.4,0.2s0.3-0.1,0.4-0.2l0.5-0.5c0.1-0.1,0.2-0.2,0.2-0.4C24,22.8,24,22.6,23.9,22.5z M16.2,19.8
	c-0.5,0-1-0.1-1.5-0.3c-0.5-0.2-0.9-0.5-1.2-0.9s-0.6-0.8-0.8-1.3s-0.2-1-0.2-1.5c0-0.6,0.2-1.1,0.5-1.6l1.2,1.2
	c0,0.2-0.1,0.3-0.1,0.5c0,0.3,0,0.6,0.1,0.8c0.1,0.3,0.2,0.5,0.4,0.7s0.4,0.4,0.7,0.5s0.5,0.1,0.8,0.1c0.2,0,0.4-0.1,0.6-0.1
	l1.2,1.2C17.4,19.5,16.8,19.7,16.2,19.8z"/>
</svg>
